<svg width="24" height="24" viewBox="0 0 24 24" fill="none" xmlns="http://www.w3.org/2000/svg">
<path d="M11.2237 3.12769L2.23834 8.11958C1.92055 8.29612 1.92055 8.75313 2.23834 8.92967L11.2237 13.9215C11.5301 14.0918 11.9028 14.0918 12.2093 13.9215L21.4367 8.79515C21.649 8.67723 21.649 8.37201 21.4367 8.2541L12.2093 3.12769C11.9028 2.95744 11.5301 2.95744 11.2237 3.12769Z" stroke="black" stroke-width="1.5" stroke-linecap="round" stroke-linejoin="round"/>
<path d="M4.34461 10.2256L3.92667 15.6588C3.84086 16.7743 4.58203 17.7834 5.6607 18.0806C6.3674 18.2752 7.14452 18.5067 7.74702 18.7316C8.61426 19.0553 9.57593 19.6 10.3356 20.0745C11.1752 20.599 12.2578 20.599 13.0975 20.0744C13.8571 19.6 14.8188 19.0553 15.686 18.7316C16.2884 18.5067 17.0657 18.2752 17.7723 18.0805C18.851 17.7834 19.5922 16.7743 19.5064 15.6588L19.0884 10.2256" stroke="black" stroke-width="1.5" stroke-linecap="round" stroke-linejoin="round"/>
<path d="M11.1494 10.2256L8.32282 11.8408C7.61609 12.2446 7.17993 12.9962 7.17993 13.8101V20.9999" stroke="black" stroke-width="1.5" stroke-linecap="round" stroke-linejoin="round"/>
</svg>
