<svg width="48" height="48" viewBox="0 0 48 48" fill="none" xmlns="http://www.w3.org/2000/svg">
<path d="M16.8824 24.9557L22.5021 31.3071C23.2981 32.2067 24.7019 32.2067 25.4979 31.3071L31.1176 24.9557C32.7905 23.0649 33.6596 20.6871 32.4027 18.4197C30.9505 15.7999 28.2895 15.2645 25.9771 17.0238C25.182 17.6286 24.5294 18.3193 24.2107 18.6777C24.1 18.8022 23.9 18.8022 23.7893 18.6777C23.4706 18.3193 22.818 17.6286 22.0229 17.0238C19.7105 15.2645 17.0494 15.7999 15.5973 18.4197C14.3404 20.6871 15.2095 23.0649 16.8824 24.9557Z" stroke="black" stroke-linejoin="round"/>
<rect x="0.35" y="0.35" width="47.3" height="47.3" rx="23.65" stroke="black" stroke-width="0.7"/>
</svg>
