<svg width="8" height="11" viewBox="0 0 8 11" fill="none" xmlns="http://www.w3.org/2000/svg">
<path d="M4.326 4.97C5.04467 4.97 5.59067 4.802 5.964 4.466C6.33733 4.12067 6.524 3.626 6.524 2.982V2.926C6.524 1.62867 5.79133 0.98 4.326 0.98H2.618V4.97H4.326ZM2.618 7.7V10.01H1.4V7.7H0V6.888H1.4V5.796H0V4.984H1.4V0H4.242C5.26867 0 6.10867 0.242667 6.762 0.728C7.41533 1.204 7.742 1.93667 7.742 2.926V2.982C7.742 3.99 7.41533 4.73667 6.762 5.222C6.118 5.698 5.278 5.936 4.242 5.936H2.618V6.888H6.02V7.7H2.618Z" fill="black"/>
</svg>
