<svg width="160" height="160" viewBox="0 0 160 160" fill="none" xmlns="http://www.w3.org/2000/svg">
<g clip-path="url(#clip0_1171_30403)">
<mask id="mask0_1171_30403" style="mask-type:alpha" maskUnits="userSpaceOnUse" x="0" y="0" width="161" height="161">
<path d="M80.0012 160.002C124.185 160.002 160.002 124.185 160.002 80.0012C160.002 35.8178 124.185 0 80.0012 0C35.8178 0 0 35.8178 0 80.0012C0 124.185 35.8178 160.002 80.0012 160.002Z" fill="white"/>
</mask>
<g mask="url(#mask0_1171_30403)">
<path d="M80.0012 160.002C124.185 160.002 160.002 124.185 160.002 80.0012C160.002 35.8178 124.185 0 80.0012 0C35.8178 0 0 35.8178 0 80.0012C0 124.185 35.8178 160.002 80.0012 160.002Z" fill="#242424"/>
<path d="M102.386 88.7508C114.579 76.5575 114.579 56.7882 102.386 44.5949C90.1928 32.4016 70.4236 32.4016 58.2303 44.5949C46.037 56.7882 46.037 76.5575 58.2303 88.7508C70.4236 100.944 90.1928 100.944 102.386 88.7508Z" fill="url(#paint0_linear_1171_30403)"/>
<path d="M32.8858 160.432H132.357C138.456 160.432 142.111 152.553 138.837 146.539C130.39 131.067 112.712 108.337 82.0961 109.362C52.5771 110.351 35.0985 130.882 26.3052 145.601C22.5613 151.857 26.3676 160.432 32.8858 160.432Z" fill="white"/>
</g>
</g>
<defs>
<linearGradient id="paint0_linear_1171_30403" x1="191.051" y1="341.915" x2="255.938" y2="503.185" gradientUnits="userSpaceOnUse">
<stop stop-color="white"/>
<stop offset="1" stop-color="#E3EDFF"/>
</linearGradient>
<clipPath id="clip0_1171_30403">
<rect width="160" height="160" fill="white"/>
</clipPath>
</defs>
</svg>
