<svg width="24" height="24" viewBox="0 0 24 24" fill="none" xmlns="http://www.w3.org/2000/svg">
<path fill-rule="evenodd" clip-rule="evenodd" d="M3.5235 5.55101C2.40543 6.66425 3.19761 8.59111 4.77317 8.59111C6.34874 8.59111 7.14091 6.66425 6.02285 5.55101C5.6742 5.20357 5.21219 5 4.77317 5C4.33415 5 3.87214 5.20357 3.5235 5.55101ZM9.28058 6.79555V7.69333H15.1402H20.9998V6.79555V5.89778H15.1402H9.28058V6.79555ZM3.52369 10.7554C2.40563 11.8686 3.19781 13.7954 4.77337 13.7954C6.34893 13.7954 7.14111 11.8686 6.02305 10.7554C5.6744 10.4079 5.21239 10.2043 4.77337 10.2043C4.33435 10.2043 3.87234 10.4079 3.52369 10.7554ZM9.28077 11.9999V12.8977H15.1404H21V11.9999V11.1021H15.1404H9.28077V11.9999ZM4.77337 18.9998C3.19781 18.9998 2.40563 17.0729 3.52369 15.9597C3.87234 15.6123 4.33435 15.4087 4.77337 15.4087C5.21239 15.4087 5.6744 15.6123 6.02305 15.9597C7.14111 17.0729 6.34893 18.9998 4.77337 18.9998ZM9.28077 18.102V17.2042V16.3065H15.1404H21V17.2042V18.102H15.1404H9.28077Z" fill="#9C9C9C"/>
</svg>
