<svg width="24" height="24" viewBox="0 0 24 24" fill="none" xmlns="http://www.w3.org/2000/svg">
<path fill-rule="evenodd" clip-rule="evenodd" d="M3 5.4375C3 5.72909 3.15008 5.875 3.45 5.875C3.85005 5.875 3.9 6.02091 3.9 7.1875C3.9 8.35409 3.94995 8.5 4.35 8.5C4.76242 8.5 4.8 8.35409 4.8 6.75V5H3.9C3.15008 5 3 5.07284 3 5.4375ZM7.5 6.75V7.625H14.25H21V6.75V5.875H14.25H7.5V6.75ZM3 10.6875C3 11.0462 3.15008 11.125 3.83318 11.125H4.66635L3.83318 11.9545C3.37485 12.4108 3 13.0014 3 13.267C3 13.7115 3.10755 13.75 4.35 13.75C5.54993 13.75 5.7 13.7014 5.7 13.3125C5.7 12.9538 5.54993 12.875 4.86683 12.875H4.03365L4.86683 12.0455C5.32515 11.5892 5.7 10.9986 5.7 10.733C5.7 10.2885 5.59245 10.25 4.35 10.25C3.15007 10.25 3 10.2986 3 10.6875ZM7.5 12V12.875H14.25H21V12V11.125H14.25H7.5V12ZM3 15.9375C3 16.3022 3.15008 16.375 3.9 16.375C4.395 16.375 4.8 16.4734 4.8 16.5938C4.8 16.7141 4.5975 16.8125 4.35 16.8125C4.05007 16.8125 3.9 16.9584 3.9 17.25C3.9 17.5416 4.05007 17.6875 4.35 17.6875C4.5975 17.6875 4.8 17.7859 4.8 17.9062C4.8 18.0266 4.395 18.125 3.9 18.125C3.15008 18.125 3 18.1978 3 18.5625C3 18.9514 3.15007 19 4.35 19H5.7V17.25V15.5H4.35C3.15007 15.5 3 15.5486 3 15.9375ZM7.5 17.25V18.125H14.25H21V17.25V16.375H14.25H7.5V17.25Z" fill="#9C9C9C"/>
</svg>
