<svg width="24" height="24" viewBox="0 0 24 24" fill="none" xmlns="http://www.w3.org/2000/svg">
<path fill-rule="evenodd" clip-rule="evenodd" d="M6 12V20L10.1281 19.9951C14.6744 19.9898 15.328 19.8418 16.5922 18.5318C18.5029 16.5518 18.4652 13.7464 16.5004 11.7078L15.4691 10.6378L15.8766 9.70778C16.3732 8.57422 16.4002 7.58378 15.9636 6.50089C15.1026 4.36556 14.1981 4.01111 9.59199 4.00489L6 4V12ZM13.5099 6.11333C14.2654 6.51822 14.5779 7.07022 14.5779 8C14.5779 9.77711 13.7212 10.2222 10.2997 10.2222H7.71558V8V5.77778H10.2997C12.1849 5.77778 13.0529 5.86844 13.5099 6.11333ZM14.7406 12.4433C16.2025 13.3669 16.6973 15.2 15.8656 16.6131C15.0368 18.022 14.4211 18.2204 10.8787 18.2213L7.71558 18.2222V15.1111V12L10.8787 12.0009C13.6566 12.0016 14.1269 12.0553 14.7406 12.4433Z" fill="#9C9C9C"/>
</svg>
