<svg width="195" height="66" viewBox="0 0 195 66" fill="none" xmlns="http://www.w3.org/2000/svg">
<path d="M3.88 4.4H6.12V33H3.88V4.4ZM15.4363 12.08H17.5563V16.16C18.0629 14.9333 18.9696 13.8933 20.2763 13.04C21.6096 12.1867 23.1696 11.76 24.9563 11.76C27.2763 11.76 29.0896 12.44 30.3963 13.8C31.7296 15.16 32.3963 17.2667 32.3963 20.12V33H30.2763V20C30.2763 15.7333 28.3429 13.6 24.4763 13.6C22.6096 13.6 20.9829 14.2 19.5963 15.4C18.2363 16.6 17.5563 18.24 17.5563 20.32V33H15.4363V12.08ZM41.3128 4.4H49.1528C52.1128 4.4 54.4728 5.02667 56.2328 6.28C57.9928 7.50667 58.8728 9.44 58.8728 12.08V12.24C58.8728 16.5333 56.4061 19.0533 51.4728 19.8L60.5528 33H58.0728L49.1128 19.96H43.5528V33H41.3128V4.4ZM49.2728 18.16C54.1795 18.16 56.6328 16.1867 56.6328 12.24V12.08C56.6328 10 55.9928 8.50667 54.7128 7.6C53.4595 6.69333 51.6461 6.24 49.2728 6.24H43.5528V18.16H49.2728ZM75.1009 33.32C72.0876 33.32 69.6743 32.3467 67.8609 30.4C66.0743 28.4533 65.1809 25.9067 65.1809 22.76V22.44C65.1809 19.2933 66.0743 16.7333 67.8609 14.76C69.6743 12.76 71.9809 11.76 74.7809 11.76C77.4476 11.76 79.6343 12.64 81.3409 14.4C83.0743 16.1333 83.9409 18.6533 83.9409 21.96V22.72H67.3809C67.4343 25.5733 68.1143 27.76 69.4209 29.28C70.7276 30.7733 72.6209 31.52 75.1009 31.52C78.7276 31.52 80.9143 30.0667 81.6609 27.16H83.7809C83.3276 29.1333 82.3409 30.6533 80.8209 31.72C79.3009 32.7867 77.3943 33.32 75.1009 33.32ZM81.7409 21C81.6343 18.4933 80.9676 16.6267 79.7409 15.4C78.5409 14.1733 76.8876 13.56 74.7809 13.56C72.7276 13.56 71.0476 14.2267 69.7409 15.56C68.4343 16.8933 67.6743 18.7067 67.4609 21H81.7409ZM97.5209 33.36C95.0943 33.36 93.1743 32.7733 91.7609 31.6C90.3743 30.4 89.6143 28.7867 89.4809 26.76H91.5209C91.9209 29.96 93.9209 31.56 97.5209 31.56C99.2543 31.56 100.574 31.2 101.481 30.48C102.388 29.76 102.841 28.7467 102.841 27.44C102.841 26.16 102.441 25.24 101.641 24.68C100.868 24.0933 99.4409 23.6 97.3609 23.2C94.7209 22.6933 92.8543 22.04 91.7609 21.24C90.6943 20.4133 90.1609 19.12 90.1609 17.36C90.1609 15.68 90.8409 14.3333 92.2009 13.32C93.5609 12.28 95.1743 11.76 97.0409 11.76C101.414 11.76 103.841 13.6533 104.321 17.44H102.281C101.774 14.8533 100.014 13.56 97.0009 13.56C95.5343 13.56 94.3476 13.9067 93.4409 14.6C92.5609 15.2667 92.1209 16.16 92.1209 17.28C92.1209 18.4533 92.5343 19.3333 93.3609 19.92C94.1876 20.48 95.6809 20.9467 97.8409 21.32C100.348 21.8 102.148 22.44 103.241 23.24C104.334 24.0133 104.881 25.36 104.881 27.28C104.881 29.0933 104.241 30.56 102.961 31.68C101.681 32.8 99.8676 33.36 97.5209 33.36ZM119.151 33.32C116.858 33.32 115.058 32.68 113.751 31.4C112.444 30.0933 111.791 28.0667 111.791 25.32V12.08H113.911V25.2C113.911 27.3867 114.391 28.9867 115.351 30C116.311 30.9867 117.738 31.48 119.631 31.48C121.444 31.48 123.031 30.8933 124.391 29.72C125.778 28.52 126.471 26.88 126.471 24.8V12.08H128.591V33H126.471V29C125.964 30.2 125.044 31.2267 123.711 32.08C122.404 32.9067 120.884 33.32 119.151 33.32ZM137.311 12.08H139.431V16.04C139.938 14.8133 140.791 13.8 141.991 13C143.218 12.1733 144.645 11.76 146.271 11.76C149.685 11.76 151.818 13.32 152.671 16.44C153.311 14.9733 154.298 13.8267 155.631 13C156.991 12.1733 158.485 11.76 160.111 11.76C162.271 11.76 163.978 12.4133 165.231 13.72C166.485 15.0267 167.111 17.0933 167.111 19.92V33H164.991V19.8C164.991 17.6133 164.551 16.04 163.671 15.08C162.791 14.0933 161.485 13.6 159.751 13.6C158.018 13.6 156.498 14.2 155.191 15.4C153.911 16.5733 153.271 18.1867 153.271 20.24V33H151.151V19.8C151.151 17.6133 150.711 16.04 149.831 15.08C148.951 14.0933 147.645 13.6 145.911 13.6C144.178 13.6 142.658 14.2 141.351 15.4C140.071 16.5733 139.431 18.1867 139.431 20.24V33H137.311V12.08ZM183.999 33.32C180.986 33.32 178.573 32.3467 176.759 30.4C174.973 28.4533 174.079 25.9067 174.079 22.76V22.44C174.079 19.2933 174.973 16.7333 176.759 14.76C178.573 12.76 180.879 11.76 183.679 11.76C186.346 11.76 188.533 12.64 190.239 14.4C191.973 16.1333 192.839 18.6533 192.839 21.96V22.72H176.279C176.333 25.5733 177.013 27.76 178.319 29.28C179.626 30.7733 181.519 31.52 183.999 31.52C187.626 31.52 189.813 30.0667 190.559 27.16H192.679C192.226 29.1333 191.239 30.6533 189.719 31.72C188.199 32.7867 186.293 33.32 183.999 33.32ZM190.639 21C190.533 18.4933 189.866 16.6267 188.639 15.4C187.439 14.1733 185.786 13.56 183.679 13.56C181.626 13.56 179.946 14.2267 178.639 15.56C177.333 16.8933 176.573 18.7067 176.359 21H190.639Z" fill="white"/>
<path d="M6.91713 60.52C5.95713 60.52 5.20513 60.2373 4.66113 59.672C4.11713 59.096 3.84513 58.3227 3.84513 57.352V57.224C3.84513 56.2747 4.13313 55.5067 4.70913 54.92C5.28513 54.3333 6.02113 54.04 6.91713 54.04C7.67446 54.04 8.29846 54.232 8.78913 54.616C9.2798 54.9893 9.55713 55.5333 9.62113 56.248H8.40513C8.27713 55.416 7.78113 55 6.91713 55C6.36246 55 5.9198 55.1973 5.58913 55.592C5.26913 55.9867 5.10913 56.5307 5.10913 57.224V57.336C5.10913 58.04 5.2638 58.584 5.57313 58.968C5.89313 59.352 6.34113 59.544 6.91713 59.544C7.86646 59.544 8.40513 59.1013 8.53313 58.216H9.68513C9.5998 58.9627 9.3118 59.5333 8.82113 59.928C8.33046 60.3227 7.6958 60.52 6.91713 60.52ZM6.88513 62.472C8.28246 62.472 9.48246 61.9813 10.4851 61C11.4985 60.008 12.0051 58.76 12.0051 57.256C12.0051 55.7733 11.5038 54.5413 10.5011 53.56C9.50913 52.5787 8.31446 52.088 6.91713 52.088C5.4878 52.088 4.27713 52.5787 3.28513 53.56C2.29313 54.5413 1.79713 55.784 1.79713 57.288C1.79713 58.792 2.29846 60.0347 3.30113 61.016C4.3038 61.9867 5.49846 62.472 6.88513 62.472ZM6.88513 63.144C5.24246 63.144 3.8558 62.584 2.72513 61.464C1.59446 60.3333 1.02913 58.9413 1.02913 57.288C1.02913 55.656 1.5998 54.2693 2.74113 53.128C3.88246 51.9867 5.27446 51.416 6.91713 51.416C8.57047 51.416 9.95713 51.9813 11.0771 53.112C12.2078 54.2427 12.7731 55.624 12.7731 57.256C12.7731 58.92 12.2025 60.3173 11.0611 61.448C9.93046 62.5787 8.53846 63.144 6.88513 63.144ZM14.9563 62.68L19.5003 57.896C20.5989 56.7333 21.1483 55.6293 21.1483 54.584C21.1483 53.944 20.9669 53.4427 20.6043 53.08C20.2523 52.7173 19.7509 52.536 19.1003 52.536C17.7136 52.536 16.9083 53.384 16.6843 55.08H15.3883C15.4736 53.9493 15.8416 53.0587 16.4923 52.408C17.1536 51.7467 18.0229 51.416 19.1003 51.416C20.1563 51.416 20.9936 51.7093 21.6123 52.296C22.2416 52.872 22.5563 53.6507 22.5563 54.632C22.5563 55.8907 21.7883 57.2773 20.2523 58.792L17.1003 61.864H22.6203V63H14.9563V62.68ZM29.9406 61.992C31.9566 61.992 32.9646 60.5147 32.9646 57.56V56.92C32.9646 55.5867 32.6926 54.5253 32.1486 53.736C31.6046 52.936 30.858 52.536 29.9086 52.536C28.938 52.536 28.1806 52.92 27.6366 53.688C27.0926 54.456 26.8206 55.544 26.8206 56.952V57.592C26.8206 59.0107 27.098 60.0987 27.6526 60.856C28.2073 61.6133 28.97 61.992 29.9406 61.992ZM29.9406 63.144C28.5753 63.144 27.4766 62.6373 26.6446 61.624C25.8126 60.6107 25.3966 59.272 25.3966 57.608V56.968C25.3966 55.272 25.7966 53.9227 26.5966 52.92C27.4073 51.9173 28.5113 51.416 29.9086 51.416C31.2953 51.416 32.3833 51.9227 33.1726 52.936C33.9726 53.9493 34.3726 55.2827 34.3726 56.936V57.576C34.3726 59.2613 33.978 60.6107 33.1886 61.624C32.41 62.6373 31.3273 63.144 29.9406 63.144ZM36.6344 62.68L41.1784 57.896C42.277 56.7333 42.8264 55.6293 42.8264 54.584C42.8264 53.944 42.645 53.4427 42.2824 53.08C41.9304 52.7173 41.429 52.536 40.7784 52.536C39.3917 52.536 38.5864 53.384 38.3624 55.08H37.0664C37.1517 53.9493 37.5197 53.0587 38.1704 52.408C38.8317 51.7467 39.701 51.416 40.7784 51.416C41.8344 51.416 42.6717 51.7093 43.2904 52.296C43.9197 52.872 44.2344 53.6507 44.2344 54.632C44.2344 55.8907 43.4664 57.2773 41.9304 58.792L38.7784 61.864H44.2984V63H36.6344V62.68ZM46.4969 62.68L51.0409 57.896C52.1395 56.7333 52.6889 55.6293 52.6889 54.584C52.6889 53.944 52.5075 53.4427 52.1449 53.08C51.7929 52.7173 51.2915 52.536 50.6409 52.536C49.2542 52.536 48.4489 53.384 48.2249 55.08H46.9289C47.0142 53.9493 47.3822 53.0587 48.0329 52.408C48.6942 51.7467 49.5635 51.416 50.6409 51.416C51.6969 51.416 52.5342 51.7093 53.1529 52.296C53.7822 52.872 54.0969 53.6507 54.0969 54.632C54.0969 55.8907 53.3289 57.2773 51.7929 58.792L48.6409 61.864H54.1609V63H46.4969V62.68ZM62.0338 58.824L64.1138 55.976H65.4258L63.4258 58.824L65.4258 61.672H64.1138L62.0338 58.824ZM64.8818 58.824L66.9618 55.976H68.2738L66.2738 58.824L68.2738 61.672H66.9618L64.8818 58.824ZM71.5173 51.56H74.7653C75.9386 51.56 76.8986 51.8373 77.6453 52.392C78.3919 52.936 78.7653 53.7733 78.7653 54.904V54.968C78.7653 56.12 78.3919 56.9733 77.6453 57.528C76.9093 58.072 75.9493 58.344 74.7653 58.344H72.9093V63H71.5173V51.56ZM74.8613 57.24C75.6826 57.24 76.3066 57.048 76.7333 56.664C77.1599 56.2693 77.3733 55.704 77.3733 54.968V54.904C77.3733 53.4213 76.5359 52.68 74.8613 52.68H72.9093V57.24H74.8613ZM84.5376 63.144C83.6523 63.144 82.943 62.8827 82.4096 62.36C81.887 61.8373 81.6256 61.0267 81.6256 59.928V54.632H82.9536V59.864C82.9536 60.6 83.1083 61.1387 83.4176 61.48C83.7376 61.8213 84.2283 61.992 84.8896 61.992C85.5296 61.992 86.0736 61.7893 86.5216 61.384C86.9696 60.9787 87.1936 60.4187 87.1936 59.704V54.632H88.5216V63H87.1936V61.672C86.991 62.0987 86.655 62.4507 86.1856 62.728C85.727 63.0053 85.1776 63.144 84.5376 63.144ZM97.0888 62.472C96.5661 62.92 95.8034 63.144 94.8008 63.144C93.7981 63.144 93.0088 62.9093 92.4328 62.44C91.8674 61.96 91.5634 61.288 91.5208 60.424H92.8168C92.8808 60.9573 93.0621 61.3627 93.3608 61.64C93.6701 61.9067 94.1448 62.04 94.7848 62.04C95.4141 62.04 95.8728 61.9333 96.1608 61.72C96.4594 61.496 96.6088 61.16 96.6088 60.712C96.6088 60.296 96.4541 59.992 96.1448 59.8C95.8461 59.5973 95.3501 59.432 94.6568 59.304C93.5688 59.112 92.8114 58.8347 92.3848 58.472C91.9581 58.1093 91.7448 57.5653 91.7448 56.84C91.7448 56.1147 92.0328 55.544 92.6088 55.128C93.1954 54.7013 93.8514 54.488 94.5768 54.488C95.3981 54.488 96.0808 54.68 96.6248 55.064C97.1794 55.448 97.5048 56.0613 97.6008 56.904H96.3208C96.2248 56.4453 96.0381 56.1147 95.7608 55.912C95.4941 55.6987 95.0941 55.592 94.5608 55.592C94.0808 55.592 93.6968 55.704 93.4088 55.928C93.1208 56.1413 92.9768 56.4293 92.9768 56.792C92.9768 57.1653 93.1101 57.448 93.3768 57.64C93.6541 57.832 94.1714 57.992 94.9288 58.12C95.3448 58.2053 95.6701 58.28 95.9048 58.344C96.1501 58.408 96.4114 58.504 96.6888 58.632C96.9768 58.7493 97.1954 58.8933 97.3448 59.064C97.4941 59.224 97.6168 59.432 97.7128 59.688C97.8194 59.944 97.8728 60.248 97.8728 60.6C97.8728 61.3893 97.6114 62.0133 97.0888 62.472ZM100.884 50.632H102.212V55.96C102.425 55.5333 102.761 55.1813 103.22 54.904C103.678 54.6267 104.238 54.488 104.9 54.488C105.817 54.488 106.537 54.76 107.06 55.304C107.582 55.848 107.844 56.7013 107.844 57.864V63H106.516V57.768C106.516 57.032 106.356 56.4933 106.036 56.152C105.716 55.8107 105.22 55.64 104.548 55.64C103.897 55.64 103.342 55.8427 102.884 56.248C102.436 56.6533 102.212 57.2133 102.212 57.928V63H100.884V50.632ZM111.449 50.632H112.777V58.488L116.249 54.632H117.801L114.217 58.52L118.105 63H116.489L112.777 58.664V63H111.449V50.632ZM122.72 63.144C121.899 63.144 121.227 62.9413 120.704 62.536C120.192 62.12 119.936 61.5013 119.936 60.68C119.936 60.2213 120.048 59.8213 120.272 59.48C120.507 59.128 120.827 58.856 121.232 58.664C121.638 58.4613 122.08 58.3173 122.56 58.232C123.04 58.136 123.563 58.088 124.128 58.088H125.328V57.48C125.328 56.808 125.19 56.328 124.912 56.04C124.635 55.7413 124.176 55.592 123.536 55.592C122.384 55.592 121.744 56.0933 121.616 57.096H120.288C120.374 56.2 120.72 55.544 121.328 55.128C121.947 54.7013 122.704 54.488 123.6 54.488C125.638 54.488 126.656 55.4853 126.656 57.48V63H125.328V61.944C124.688 62.744 123.819 63.144 122.72 63.144ZM122.848 62.088C123.574 62.088 124.166 61.912 124.624 61.56C125.094 61.1973 125.328 60.7013 125.328 60.072V59.032H124.176C122.235 59.032 121.264 59.5813 121.264 60.68C121.264 61.6187 121.792 62.088 122.848 62.088ZM131.725 58.824L129.725 55.976H131.037L133.117 58.824L131.037 61.672H129.725L131.725 58.824ZM134.573 58.824L132.573 55.976H133.885L135.965 58.824L133.885 61.672H132.573L134.573 58.824Z" fill="white"/>
</svg>
