<svg width="38" height="38" viewBox="0 0 38 38" fill="none" xmlns="http://www.w3.org/2000/svg">
<circle cx="19" cy="19" r="19" fill="white"/>
<path d="M15.913 16.2302V25.6743C15.913 25.7606 15.8787 25.8435 15.8175 25.9045C15.7564 25.9656 15.6734 25.9999 15.587 25.9999H12.3261C12.2396 25.9999 12.1567 25.9656 12.0955 25.9045C12.0344 25.8435 12 25.7606 12 25.6743V16.2302C12 16.1438 12.0344 16.061 12.0955 15.9999C12.1567 15.9389 12.2396 15.9045 12.3261 15.9045H15.587C15.6734 15.9045 15.7564 15.9389 15.8175 15.9999C15.8787 16.061 15.913 16.1438 15.913 16.2302ZM15.913 13.5891C15.913 14.5661 15.0913 15.25 13.9565 15.25C12.8217 15.25 12 14.5433 12 13.6217C12 12.7001 12.8217 12.0129 13.9565 12.0129C15.0913 12.0129 15.8576 12.6545 15.9098 13.5891H15.913ZM27 20.1381V25.6743C27 25.7606 26.9656 25.8435 26.9045 25.9045C26.8433 25.9656 26.7604 25.9999 26.6739 25.9999H23.7391C23.6526 25.9999 23.5697 25.9656 23.5086 25.9045C23.4474 25.8435 23.413 25.7606 23.413 25.6743V20.6266C23.4133 20.2583 23.2745 19.9035 23.0242 19.633C22.7739 19.3625 22.4307 19.1963 22.063 19.1676C21.985 19.1589 21.9063 19.1589 21.8283 19.1676C21.4606 19.1963 21.1174 19.3625 20.8671 19.633C20.6168 19.9035 20.478 20.2583 20.4783 20.6266V25.6743C20.4783 25.7606 20.4439 25.8435 20.3828 25.9045C20.3216 25.9656 20.2387 25.9999 20.1522 25.9999H17.2174C17.1309 25.9999 17.048 25.9656 16.9868 25.9045C16.9257 25.8435 16.8913 25.7606 16.8913 25.6743V16.2302C16.8913 16.1438 16.9257 16.061 16.9868 15.9999C17.048 15.9389 17.1309 15.9045 17.2174 15.9045H20.4783C20.5647 15.9045 20.6477 15.9389 20.7088 15.9999C20.77 16.061 20.8043 16.1438 20.8043 16.2302V16.7154C21.547 16.1897 22.4343 15.9065 23.3446 15.9045C25.8685 15.9045 27 18.0311 27 20.1381Z" fill="#242424"/>
</svg>
