<svg width="38" height="38" viewBox="0 0 38 38" fill="none" xmlns="http://www.w3.org/2000/svg">
<path d="M38 19C38 29.4934 29.4934 38 19 38C8.50659 38 0 29.4934 0 19C0 8.50659 8.50659 0 19 0C29.4934 0 38 8.50659 38 19Z" fill="white"/>
<path d="M19.8038 25C13.6539 25 10.1462 20.8709 10 14H13.0806C13.1817 19.043 15.4528 21.1792 17.2517 21.6196V14H20.1524V18.3493C21.9288 18.1621 23.7949 16.1802 24.4245 14H27.3253C26.8419 16.6867 24.8181 18.6687 23.379 19.4835C24.8181 20.1441 27.123 21.8729 28 25H24.8069C24.1211 22.9079 22.4123 21.2893 20.1524 21.0691V25H19.8038Z" fill="#242424"/>
</svg>
