<svg width="38" height="38" viewBox="0 0 38 38" fill="none" xmlns="http://www.w3.org/2000/svg">
    <g clip-path="url(#clip0_411_2185)">
        <path d="M38 18.9999C38 28.8064 30.6617 36.7864 21.1968 37.8774C20.4673 37.9616 19.7339 38.0026 19 37.9999H18.4975C8.23801 37.7425 0 29.3335 0 19.0122C0 8.69092 8.50677 0.012207 19 0.012207C29.4932 0.012207 38 8.50704 38 18.9999Z" fill="white"/>
        <path d="M21.115 7.91866C21.1407 8.47153 21.0079 9.01979 20.7337 9.49275C20.4596 9.96571 20.0567 10.3417 19.577 10.5722C19.0973 10.8027 18.5627 10.8772 18.0423 10.786C17.5218 10.6948 17.0394 10.4422 16.6571 10.0607C16.2748 9.67914 16.0102 9.18623 15.8974 8.64549C15.7847 8.10476 15.8289 7.54098 16.0245 7.02687C16.22 6.51276 16.5579 6.07187 16.9945 5.76108C17.4311 5.45029 17.9465 5.28384 18.4741 5.28319C19.1571 5.26671 19.8185 5.5348 20.3134 6.02875C20.8084 6.52271 21.0966 7.20227 21.115 7.91866Z" fill="#242424"/>
        <path d="M32.7183 11.6084V13.4716C32.7183 13.4716 28.6518 14.5626 23.7441 15.5432C22.0731 17.0387 17.7263 21.4271 17.7263 26.8084C17.824 30.8319 19.1834 34.7094 21.594 37.8407C20.8645 37.9249 20.1311 37.9658 19.3972 37.9632H18.8948C17.0303 34.6604 15.7516 31.0307 15.1205 27.2497C14.6704 23.7598 14.6704 20.2222 15.1205 16.7323C10.5983 16.9407 6.02945 16.6587 6.02945 16.6587L5.23486 14.7955C5.23486 14.7955 12.3394 14.6974 19.5725 13.8639C23.9886 13.3504 28.3764 12.5976 32.7183 11.6084Z" fill="#242424"/>
    </g>
    <defs>
        <clipPath id="clip0_411_2185">
            <rect width="38" height="38" fill="white"/>
        </clipPath>
    </defs>
</svg>
