<svg width="99" height="48" viewBox="0 0 99 48" fill="none" xmlns="http://www.w3.org/2000/svg">
<path d="M25.536 17.56H28.976C31.4293 17.56 32.656 18.5467 32.656 20.52V20.584C32.656 21.8 32.08 22.6053 30.928 23C31.7493 23.192 32.336 23.5067 32.688 23.944C33.04 24.3813 33.216 24.9787 33.216 25.736V25.8C33.216 26.856 32.88 27.656 32.208 28.2C31.5467 28.7333 30.6293 29 29.456 29H25.536V17.56ZM29.424 27.912C31.0453 27.912 31.856 27.2027 31.856 25.784V25.72C31.856 25.0053 31.648 24.4827 31.232 24.152C30.816 23.8107 30.1493 23.64 29.232 23.64H26.896V27.912H29.424ZM28.976 22.552C29.808 22.552 30.4 22.3973 30.752 22.088C31.1147 21.768 31.296 21.2507 31.296 20.536V20.472C31.296 19.832 31.104 19.368 30.72 19.08C30.3467 18.792 29.7547 18.648 28.944 18.648H26.896V22.552H28.976ZM43.2971 20.632H44.6251V29H43.2971V20.632ZM36.0971 20.632H37.4251V23.56H38.9131C39.8625 23.56 40.6305 23.7733 41.2171 24.2C41.8145 24.6267 42.1131 25.2987 42.1131 26.216V26.264C42.1131 27.1707 41.8145 27.8533 41.2171 28.312C40.6198 28.7707 39.8518 29 38.9131 29H36.0971V20.632ZM38.9931 27.944C39.6225 27.944 40.0758 27.8107 40.3531 27.544C40.6411 27.2667 40.7851 26.84 40.7851 26.264V26.216C40.7851 25.6827 40.6465 25.2827 40.3691 25.016C40.0918 24.7387 39.6331 24.6 38.9931 24.6H37.4251V27.944H38.9931ZM51.5559 19.096C50.9799 19.096 50.4892 18.8987 50.0839 18.504C49.6785 18.0987 49.4652 17.592 49.4439 16.984H50.5959C50.6599 17.7733 50.9799 18.168 51.5559 18.168C52.1852 18.168 52.5372 17.7733 52.6119 16.984H53.7319C53.6892 17.592 53.4599 18.0987 53.0439 18.504C52.6385 18.8987 52.1425 19.096 51.5559 19.096ZM48.1159 29V20.632H49.4439V27.08L53.7159 20.632H55.0439V29H53.7159V22.552L49.4439 29H48.1159ZM64.241 21.752H61.537V29H60.209V21.752H57.505V20.632H64.241V21.752ZM66.8721 29V20.632H68.2001V27.08L72.4721 20.632H73.8001V29H72.4721V22.552L68.2001 29H66.8721Z" fill="black"/>
<rect x="0.35" y="0.35" width="98.3" height="47.3" rx="23.65" stroke="black" stroke-width="0.7"/>
</svg>
