<svg width="54" height="54" viewBox="0 0 54 54" fill="none" xmlns="http://www.w3.org/2000/svg">
    <rect x="0.35" y="0.35" fill="none" width="53.3" height="53.3" rx="26.65" stroke="black" stroke-width="1"/>
    <path d="M19.8824 27.9557L25.5021 34.3071C26.2981 35.2067 27.7019 35.2067 28.4979 34.3071L34.1176 27.9557C35.7905 26.0649 36.6596 23.6871 35.4027 21.4197C33.9505 18.7999 31.2895 18.2645 28.9771 20.0238C28.182 20.6286 27.5294 21.3193 27.2107 21.6777C27.1 21.8022 26.9 21.8022 26.7893 21.6777C26.4706 21.3193 25.818 20.6286 25.0229 20.0238C22.7105 18.2645 20.0494 18.7999 18.5973 21.4197C17.3404 23.6871 18.2095 26.0649 19.8824 27.9557Z" fill="current" stroke="current" stroke-width="2" stroke-linejoin="round"/>
</svg>
