<svg width="195" height="38" viewBox="0 0 195 38" fill="none" xmlns="http://www.w3.org/2000/svg">
<path d="M3.88 4.4H6.12V33H3.88V4.4ZM15.4363 12.08H17.5563V16.16C18.0629 14.9333 18.9696 13.8933 20.2763 13.04C21.6096 12.1867 23.1696 11.76 24.9563 11.76C27.2763 11.76 29.0896 12.44 30.3963 13.8C31.7296 15.16 32.3963 17.2667 32.3963 20.12V33H30.2763V20C30.2763 15.7333 28.3429 13.6 24.4763 13.6C22.6096 13.6 20.9829 14.2 19.5963 15.4C18.2363 16.6 17.5563 18.24 17.5563 20.32V33H15.4363V12.08ZM41.3128 4.4H49.1528C52.1128 4.4 54.4728 5.02667 56.2328 6.28C57.9928 7.50667 58.8728 9.44 58.8728 12.08V12.24C58.8728 16.5333 56.4061 19.0533 51.4728 19.8L60.5528 33H58.0728L49.1128 19.96H43.5528V33H41.3128V4.4ZM49.2728 18.16C54.1795 18.16 56.6328 16.1867 56.6328 12.24V12.08C56.6328 10 55.9928 8.50667 54.7128 7.6C53.4595 6.69333 51.6461 6.24 49.2728 6.24H43.5528V18.16H49.2728ZM75.1009 33.32C72.0876 33.32 69.6743 32.3467 67.8609 30.4C66.0743 28.4533 65.1809 25.9067 65.1809 22.76V22.44C65.1809 19.2933 66.0743 16.7333 67.8609 14.76C69.6743 12.76 71.9809 11.76 74.7809 11.76C77.4476 11.76 79.6343 12.64 81.3409 14.4C83.0743 16.1333 83.9409 18.6533 83.9409 21.96V22.72H67.3809C67.4343 25.5733 68.1143 27.76 69.4209 29.28C70.7276 30.7733 72.6209 31.52 75.1009 31.52C78.7276 31.52 80.9143 30.0667 81.6609 27.16H83.7809C83.3276 29.1333 82.3409 30.6533 80.8209 31.72C79.3009 32.7867 77.3943 33.32 75.1009 33.32ZM81.7409 21C81.6343 18.4933 80.9676 16.6267 79.7409 15.4C78.5409 14.1733 76.8876 13.56 74.7809 13.56C72.7276 13.56 71.0476 14.2267 69.7409 15.56C68.4343 16.8933 67.6743 18.7067 67.4609 21H81.7409ZM97.5209 33.36C95.0943 33.36 93.1743 32.7733 91.7609 31.6C90.3743 30.4 89.6143 28.7867 89.4809 26.76H91.5209C91.9209 29.96 93.9209 31.56 97.5209 31.56C99.2543 31.56 100.574 31.2 101.481 30.48C102.388 29.76 102.841 28.7467 102.841 27.44C102.841 26.16 102.441 25.24 101.641 24.68C100.868 24.0933 99.4409 23.6 97.3609 23.2C94.7209 22.6933 92.8543 22.04 91.7609 21.24C90.6943 20.4133 90.1609 19.12 90.1609 17.36C90.1609 15.68 90.8409 14.3333 92.2009 13.32C93.5609 12.28 95.1743 11.76 97.0409 11.76C101.414 11.76 103.841 13.6533 104.321 17.44H102.281C101.774 14.8533 100.014 13.56 97.0009 13.56C95.5343 13.56 94.3476 13.9067 93.4409 14.6C92.5609 15.2667 92.1209 16.16 92.1209 17.28C92.1209 18.4533 92.5343 19.3333 93.3609 19.92C94.1876 20.48 95.6809 20.9467 97.8409 21.32C100.348 21.8 102.148 22.44 103.241 23.24C104.334 24.0133 104.881 25.36 104.881 27.28C104.881 29.0933 104.241 30.56 102.961 31.68C101.681 32.8 99.8676 33.36 97.5209 33.36ZM119.151 33.32C116.858 33.32 115.058 32.68 113.751 31.4C112.444 30.0933 111.791 28.0667 111.791 25.32V12.08H113.911V25.2C113.911 27.3867 114.391 28.9867 115.351 30C116.311 30.9867 117.738 31.48 119.631 31.48C121.444 31.48 123.031 30.8933 124.391 29.72C125.778 28.52 126.471 26.88 126.471 24.8V12.08H128.591V33H126.471V29C125.964 30.2 125.044 31.2267 123.711 32.08C122.404 32.9067 120.884 33.32 119.151 33.32ZM137.311 12.08H139.431V16.04C139.938 14.8133 140.791 13.8 141.991 13C143.218 12.1733 144.645 11.76 146.271 11.76C149.685 11.76 151.818 13.32 152.671 16.44C153.311 14.9733 154.298 13.8267 155.631 13C156.991 12.1733 158.485 11.76 160.111 11.76C162.271 11.76 163.978 12.4133 165.231 13.72C166.485 15.0267 167.111 17.0933 167.111 19.92V33H164.991V19.8C164.991 17.6133 164.551 16.04 163.671 15.08C162.791 14.0933 161.485 13.6 159.751 13.6C158.018 13.6 156.498 14.2 155.191 15.4C153.911 16.5733 153.271 18.1867 153.271 20.24V33H151.151V19.8C151.151 17.6133 150.711 16.04 149.831 15.08C148.951 14.0933 147.645 13.6 145.911 13.6C144.178 13.6 142.658 14.2 141.351 15.4C140.071 16.5733 139.431 18.1867 139.431 20.24V33H137.311V12.08ZM183.999 33.32C180.986 33.32 178.573 32.3467 176.759 30.4C174.973 28.4533 174.079 25.9067 174.079 22.76V22.44C174.079 19.2933 174.973 16.7333 176.759 14.76C178.573 12.76 180.879 11.76 183.679 11.76C186.346 11.76 188.533 12.64 190.239 14.4C191.973 16.1333 192.839 18.6533 192.839 21.96V22.72H176.279C176.333 25.5733 177.013 27.76 178.319 29.28C179.626 30.7733 181.519 31.52 183.999 31.52C187.626 31.52 189.813 30.0667 190.559 27.16H192.679C192.226 29.1333 191.239 30.6533 189.719 31.72C188.199 32.7867 186.293 33.32 183.999 33.32ZM190.639 21C190.533 18.4933 189.866 16.6267 188.639 15.4C187.439 14.1733 185.786 13.56 183.679 13.56C181.626 13.56 179.946 14.2267 178.639 15.56C177.333 16.8933 176.573 18.7067 176.359 21H190.639Z" fill="black"/>
</svg>
